<svg width="25" height="25" viewBox="0 0 25 25" fill="none" xmlns="http://www.w3.org/2000/svg">
<path fill-rule="evenodd" clip-rule="evenodd" d="M18.5607 17.418C16.9003 18.3716 14.8529 19.1144 12.5002 19.1144C9.09605 19.1144 6.33091 17.5593 4.45291 16.0608C3.50914 15.3078 2.77236 14.5558 2.27024 13.9909C2.01874 13.7079 1.82485 13.4705 1.6921 13.3013C1.62569 13.2166 1.57448 13.149 1.53891 13.1011C1.52112 13.0772 1.50723 13.0582 1.4973 13.0444L1.48537 13.0279L1.48165 13.0227L1.48035 13.0208C1.48013 13.0205 1.47942 13.0195 2.21445 12.5002L1.47942 13.0195C1.25946 12.7082 1.25946 12.2921 1.47942 11.9808L2.21445 12.5002C1.47942 11.9808 1.4792 11.9811 1.47942 11.9808L1.48034 11.9795L1.48165 11.9777L1.48537 11.9724L1.4973 11.9559C1.50723 11.9422 1.52112 11.9232 1.5389 11.8992C1.57448 11.8513 1.62569 11.7837 1.6921 11.699C1.82485 11.5299 2.01873 11.2924 2.27024 11.0094C2.77236 10.4445 3.50914 9.69254 4.4529 8.93951C5.40639 8.17871 6.58857 7.40329 7.96694 6.82422L10.1259 8.9832C8.99845 9.74585 8.25731 11.0364 8.25731 12.5001C8.25731 14.8433 10.1569 16.7429 12.5002 16.7429C13.9638 16.7429 15.2544 16.0018 16.017 14.8743L18.5607 17.418ZM3.61564 12.2052C3.52083 12.3119 3.43569 12.4107 3.3605 12.5002C3.43569 12.5896 3.52083 12.6884 3.61564 12.7951C4.06581 13.3016 4.72892 13.9783 5.57556 14.6538C6.16087 15.1208 6.82592 15.5811 7.56224 15.9842C6.86624 14.9996 6.45731 13.7976 6.45731 12.5001C6.45731 11.2027 6.86617 10.0008 7.56207 9.01621C6.82581 9.41923 6.16082 9.87952 5.57556 10.3465C4.72892 11.022 4.06582 11.6987 3.61564 12.2052Z" fill="#777989"/>
<path d="M20.132 16.3817L18.8445 15.0942C19.0458 14.9491 19.2393 14.8017 19.4248 14.6537C20.2715 13.9781 20.9346 13.3015 21.3847 12.795C21.4795 12.6883 21.5647 12.5895 21.6399 12.5C21.5647 12.4106 21.4795 12.3117 21.3847 12.2051C20.9346 11.6986 20.2715 11.0219 19.4248 10.3464C18.8396 9.87941 18.1746 9.41912 17.4383 9.01609C18.1342 10.0007 18.5431 11.2026 18.5431 12.5C18.5431 13.1882 18.428 13.8495 18.2161 14.4658L16.7176 12.9673C16.7344 12.8138 16.7431 12.6579 16.7431 12.5C16.7431 10.1567 14.8435 8.2571 12.5002 8.2571C12.3423 8.2571 12.1863 8.26574 12.0329 8.28255L9.93359 6.18329C10.7412 5.99492 11.5983 5.88574 12.5002 5.88574C15.9043 5.88574 18.6695 7.44092 20.5475 8.9394C21.4912 9.69244 22.228 10.4444 22.7301 11.0093C22.9816 11.2923 23.1755 11.5297 23.3083 11.6989C23.3747 11.7836 23.4259 11.8512 23.4615 11.8991C23.4793 11.9231 23.4932 11.9421 23.5031 11.9558L23.515 11.9723L23.5187 11.9776L23.52 11.9794C23.5203 11.9797 23.521 11.9807 22.7859 12.5L23.521 11.9807C23.7409 12.292 23.7409 12.7081 23.521 13.0194L22.7859 12.5C23.521 13.0194 23.5212 13.0191 23.521 13.0194L23.52 13.0207L23.5187 13.0225L23.515 13.0278L23.5031 13.0443C23.4931 13.058 23.4793 13.077 23.4615 13.101C23.4259 13.1489 23.3747 13.2165 23.3083 13.3012C23.1755 13.4704 22.9816 13.7078 22.7301 13.9908C22.228 14.5557 21.4912 15.3077 20.5475 16.0607C20.4135 16.1676 20.275 16.2748 20.132 16.3817Z" fill="#777989"/>
<path d="M5.64258 5.64265L19.3569 19.3569" stroke="#5A6C86" stroke-width="1.5" stroke-linecap="round" stroke-linejoin="round"/>
</svg>
