<?xml version="1.0" encoding="UTF-8" standalone="no"?>
<!DOCTYPE svg PUBLIC "-//W3C//DTD SVG 1.1//EN" "http://www.w3.org/Graphics/SVG/1.1/DTD/svg11.dtd">
<svg width="100%" height="100%" viewBox="0 0 1024 1024" version="1.1" xmlns="http://www.w3.org/2000/svg" xmlns:xlink="http://www.w3.org/1999/xlink" xml:space="preserve" xmlns:serif="http://www.serif.com/" style="fill-rule:evenodd;clip-rule:evenodd;stroke-linejoin:round;stroke-miterlimit:2;">
    <g transform="matrix(23.2727,0,0,23.2727,760.762,0)">
        <path d="M0,44L-21.377,44C-28.597,44 -32.689,39.908 -32.689,32.689L-32.689,11.311C-32.689,4.092 -28.597,0 -21.377,0L0,0C7.219,0 11.311,4.092 11.311,11.311L11.311,32.689C11.311,39.908 7.219,44 0,44" style="fill:url(#_Linear1);fill-rule:nonzero;"/>
    </g>
    <g transform="matrix(4.29438,0,0,4.37328,-52.7832,-44.8256)">
        <path d="M250.742,125.513L250.742,131.727C250.742,150.559 235.172,165.848 215.995,165.848L83.963,165.848C59.889,165.848 40.344,146.655 40.344,123.016C40.344,75.043 80.008,36.094 128.863,36.094L159.681,36.094C209.939,36.094 250.742,76.161 250.742,125.513Z"/>
    </g>
    <g transform="matrix(14.7883,-17.9701,-17.9701,-14.7883,65.6558,813.579)">
        <path d="M-0.59,3.15C-0.413,3.308 -0.229,3.465 -0.04,3.62L0.572,4.125L7.91,4.125L8.736,3.121L-0.59,3.15Z"/>
    </g>
    <g transform="matrix(23.2727,0,0,23.2727,362.072,453.567)">
        <path d="M0,0.672L0,0.128C0,-2.113 -0.641,-3.025 -2.049,-3.025C-3.377,-3.025 -4.066,-2.049 -4.066,-0.016L-4.066,0.528C-4.066,2.849 -3.377,3.697 -2,3.697C-0.687,3.697 0,2.721 0,0.672M-7.219,0.544L-7.219,0.192C-7.219,-3.634 -4.738,-5.218 -1.984,-5.218C0.881,-5.218 3.17,-3.634 3.17,0.128L3.17,0.48C3.17,4.305 0.687,5.89 -2.064,5.89C-4.945,5.89 -7.219,4.305 -7.219,0.544" style="fill:rgb(72,211,204);fill-rule:nonzero;"/>
    </g>
    <g transform="matrix(23.2727,0,0,23.2727,457.344,586.54)">
        <path d="M0,-8.259L2.785,-8.259L3.906,-3.473L3.969,-3.473L5.234,-8.259L7.268,-8.259L8.563,-3.473L8.627,-3.473L9.732,-8.259L12.084,-8.259L9.908,0L7.363,0L6.082,-4.641L6.033,-4.641L4.721,0L2.16,0L0,-8.259Z" style="fill:rgb(72,211,204);fill-rule:nonzero;"/>
    </g>
    <g transform="matrix(23.2727,0,0,23.2727,928.072,453.567)">
        <path d="M0,0.672L0,0.128C0,-2.113 -0.641,-3.025 -2.049,-3.025C-3.377,-3.025 -4.066,-2.049 -4.066,-0.016L-4.066,0.528C-4.066,2.849 -3.377,3.697 -2,3.697C-0.687,3.697 0,2.721 0,0.672M-7.219,0.544L-7.219,0.192C-7.219,-3.634 -4.738,-5.218 -1.984,-5.218C0.881,-5.218 3.17,-3.634 3.17,0.128L3.17,0.48C3.17,4.305 0.687,5.89 -2.064,5.89C-4.945,5.89 -7.219,4.305 -7.219,0.544" style="fill:rgb(72,211,204);fill-rule:nonzero;"/>
    </g>
    <defs>
        <linearGradient id="_Linear1" x1="0" y1="0" x2="1" y2="0" gradientUnits="userSpaceOnUse" gradientTransform="matrix(-89.3419,88.9109,-88.9109,-89.3419,8.42031,4.85653)"><stop offset="0" style="stop-color:rgb(226,240,240);stop-opacity:1"/><stop offset="1" style="stop-color:rgb(112,218,218);stop-opacity:1"/></linearGradient>
    </defs>
</svg>
