<svg width="20" height="20" viewBox="0 0 20 20" fill="none" xmlns="http://www.w3.org/2000/svg">
<circle cx="10" cy="10" r="9" stroke="#FFCD45" stroke-width="2"/>
<path d="M9.388 11.916L9.064 7.812L9.004 6.024H10.996L10.936 7.812L10.612 11.916H9.388ZM10 15.108C9.696 15.108 9.444 15.008 9.244 14.808C9.044 14.608 8.944 14.356 8.944 14.052C8.944 13.74 9.044 13.484 9.244 13.284C9.444 13.084 9.696 12.984 10 12.984C10.304 12.984 10.556 13.084 10.756 13.284C10.956 13.484 11.056 13.74 11.056 14.052C11.056 14.356 10.956 14.608 10.756 14.808C10.556 15.008 10.304 15.108 10 15.108Z" fill="#FFCA3A"/>
</svg>
